<?xml version="1.0" standalone="no"?>
<!DOCTYPE svg PUBLIC "-//W3C//DTD SVG 20010904//EN"
 "http://www.w3.org/TR/2001/REC-SVG-20010904/DTD/svg10.dtd">
<svg version="1.0" xmlns="http://www.w3.org/2000/svg"
 width="814.000000pt" height="814.000000pt" viewBox="0 0 814.000000 814.000000"
 preserveAspectRatio="xMidYMid meet">
<metadata>
Created by potrace 1.11, written by Peter Selinger 2001-2013
</metadata>
<g transform="translate(0.000000,814.000000) scale(0.100000,-0.100000)"
fill="#000000" stroke="none">
<path d="M4865 6332 c-211 -116 -315 -269 -315 -461 0 -80 29 -210 71 -316 40
-102 79 -172 212 -378 88 -137 119 -210 121 -287 1 -66 -33 -133 -89 -176 -20
-15 -34 -29 -31 -31 5 -6 169 58 237 92 194 99 259 195 229 339 -7 35 -67 169
-158 354 -159 321 -203 436 -229 593 -16 99 -12 188 13 277 8 28 0 28 -61 -6z"/>
<path d="M4359 5832 c-134 -75 -212 -149 -262 -248 -95 -188 -39 -477 151
-772 179 -279 201 -324 202 -415 0 -73 -23 -121 -86 -176 -26 -22 -44 -41 -41
-41 17 0 201 76 268 111 151 79 213 156 212 264 0 82 -15 119 -173 436 -210
423 -261 613 -215 808 9 35 14 65 12 67 -1 1 -32 -14 -68 -34z"/>
<path d="M3360 5661 c-345 -156 -538 -347 -612 -608 -19 -65 -22 -101 -21
-218 0 -122 4 -155 31 -255 41 -160 92 -290 182 -470 115 -230 143 -278 557
-936 157 -249 242 -397 313 -547 80 -168 107 -246 90 -257 -30 -19 -292 -28
-385 -14 -58 8 -174 43 -215 64 -112 57 -212 162 -282 297 -43 84 -47 80 -17
-21 89 -308 204 -493 384 -622 133 -95 255 -128 465 -129 182 0 205 6 400 101
299 145 480 314 563 524 69 175 63 389 -17 632 -70 213 -168 403 -444 863
-286 474 -382 667 -438 870 -33 118 -41 258 -21 345 9 36 14 67 12 69 -10 10
-165 -90 -222 -142 -206 -192 -206 -443 1 -855 55 -111 124 -229 328 -567 205
-339 296 -518 367 -718 95 -269 94 -523 -3 -714 -31 -62 -120 -193 -131 -193
-2 0 3 19 12 43 27 67 24 269 -5 372 -71 255 -185 480 -559 1105 -411 689
-543 978 -589 1294 -43 291 54 523 282 676 42 27 72 50 67 49 -4 0 -46 -17
-93 -38z"/>
<path d="M4701 2138 c-17 -29 -31 -56 -31 -60 0 -8 149 -98 162 -98 7 0 72
110 67 114 -2 1 -26 15 -54 31 -27 15 -64 36 -82 47 l-32 19 -30 -53z"/>
<path d="M4441 1917 c-17 -30 -31 -57 -31 -60 0 -7 150 -97 162 -97 7 0 72
110 67 114 -2 1 -26 15 -54 31 -27 15 -64 36 -82 47 l-31 19 -31 -54z"/>
</g>
</svg>
